<svg width="309"
    height="315"
    viewBox="0 0 309 315"
    fill="none"
    xmlns="http://www.w3.org/2000/svg">
    <path
        d="M291.626 163.772C291.626 163.772 285.781 236.435 234.833 258.15C183.884 279.865 87.834 285.712 35.2146 236.435C-17.403 187.16 -5.71082 98.6264 35.2146 49.3469C76.14 0.0691223 160.498 -8.2814 198.918 6.75064C237.336 21.7863 294.968 52.6885 291.626 163.772Z"
        fill="#EE9469" />
    <g opacity="0.300003">
        <g opacity="0.300003">
            <path
                opacity="0.300003"
                d="M95.5516 137.041C50.2302 128.961 20.1498 141.332 0.363037 159.032C2.31144 187.888 13.0249 215.653 35.2143 236.436C87.8337 285.712 183.884 279.865 234.832 258.15C285.781 236.436 291.626 163.772 291.626 163.772C291.924 153.881 291.731 144.636 291.116 135.97C250.411 181.396 193.902 154.576 95.5516 137.041Z"
                fill="#00998E" />
        </g>
    </g>
    <path
        d="M25.8606 146.449C25.8606 146.449 13.7124 137.351 20.1181 118.22C26.5203 99.0891 58.6679 109.75 51.2907 128.805C43.9116 147.86 36.7795 148.679 36.7795 148.679C12.9445 217.698 13.0239 217.467 10.5275 224.138C8.41871 229.762 -1.75226 229.262 2.23827 218.387C6.22879 207.509 25.8606 146.449 25.8606 146.449Z"
        fill="white" />
    <path
        d="M43.1171 86.7854C43.1171 86.7854 12.9268 78.6421 6.30477 49.5748C-1.08328 17.1369 44.8113 5.83402 55.0418 35.1663C65.0343 63.821 43.1171 86.7854 43.1171 86.7854Z"
        fill="#E63923" />
    <path
        d="M55.042 35.1664C51.4264 24.8007 43.357 19.5323 34.7595 18.4545C41.3311 20.6967 45.5721 27.0591 48.4578 35.3394C57.6014 61.5572 45.7199 78.5754 43.1173 86.7854C43.1173 86.7854 65.0345 63.821 55.042 35.1664Z"
        fill="#B92925" />
    <path
        d="M52.1133 42.799C54.4636 52.3427 48.6347 61.9856 39.0909 64.3377C29.5454 66.6844 19.9025 60.8555 17.5504 51.3117C15.2001 41.768 21.029 32.1251 30.5746 29.773C40.1219 27.4209 49.763 33.2534 52.1133 42.799Z"
        fill="#B92925" />
    <path
        d="M47.5204 41.2248C49.6779 49.9881 44.3266 58.8415 35.5633 60.999C26.8018 63.1564 17.9484 57.8051 15.7891 49.04C13.6298 40.2803 18.9848 31.4287 27.7463 29.2694C36.5078 27.1102 45.3612 32.4651 47.5204 41.2248Z"
        fill="white" />
    <path
        d="M35.5344 290.166C35.5344 290.166 73.6192 198.609 72.4441 171.249C71.2707 143.892 57.3471 91.2723 72.125 78.5978C86.9047 65.9197 89.3109 95.2142 119.901 98.2854C150.49 101.357 163.374 90.5964 182.474 74.1567C201.575 57.7133 226.047 35.7493 235.152 40.7942C244.258 45.8391 218.159 75.7464 209.158 85.9444C200.155 96.1442 179.527 111.834 157.842 163.282C136.161 214.728 107.885 314.154 107.885 314.154C107.885 314.154 60.6708 321.331 35.5344 290.166Z"
        fill="#FFDB90" />
    <path
        d="M211.909 82.8084C211.926 82.6372 211.938 82.5128 211.938 82.5128C211.938 82.5128 205.934 83.7583 203.755 81.6729C198.462 76.6009 202.002 58.5877 202.002 58.5877L180.124 81.453C180.124 81.453 183.686 95.263 185.032 97.352C185.962 98.7885 190.365 101.215 193.543 102.656C200.143 94.9458 205.576 90.0036 209.159 85.9446C209.95 85.0452 210.886 83.9836 211.909 82.8084Z"
        fill="#FFC181" />
    <path
        d="M123.468 130.047L91.9766 190.637C91.9766 190.637 112.474 217.071 135.058 225.859C142.006 204.849 149.455 183.69 156.34 166.904C156.4 166.758 156.456 166.609 156.517 166.463L144.466 140.659L123.468 130.047Z"
        fill="#FFC181" />
    <path
        d="M202.675 33.6155C202.448 29.3042 198.533 28.0803 198.533 28.0803L196.33 31.7536C174.045 27.8514 100.905 23.3833 98.2794 27.2873C95.6244 31.2273 89.0871 146.727 92.4108 181.546L89.0925 184.819C89.0925 184.819 90.0136 190.048 93.357 191.472C101.161 197.086 178.245 204.255 185.013 196.477C191.785 188.703 204.98 37.6583 202.675 33.6155Z"
        fill="#001C3F" />
    <path
        d="M94.1344 21.752C90.0465 25.391 81.2905 179.199 89.0931 184.819C96.8993 190.434 174.103 198.723 180.871 190.947C187.643 183.168 200.84 32.123 198.531 28.0802C196.228 24.0392 100.326 16.2438 94.1344 21.752Z"
        fill="#003D6B" />
    <path
        d="M103.444 36.291C101.135 41.2746 89.9244 157.719 96.2977 161.846C102.673 165.974 176.616 170.922 179.176 167.407C183.858 160.981 192.779 46.3989 188.554 41.4765C185.254 37.6374 105.753 31.3055 103.444 36.291Z"
        fill="#BDDCE0" />
    <g opacity="0.300003">
        <g opacity="0.300003">
            <path
                opacity="0.300003"
                d="M172.402 154.436C172.212 157.589 170.022 160.02 167.508 159.87L111.048 156.5C108.535 156.349 106.65 153.674 106.836 150.521C107.027 147.371 109.215 144.937 111.729 145.089L168.189 148.459C170.704 148.609 172.589 151.284 172.402 154.436Z"
                fill="#00998E" />
        </g>
    </g>
    <path
        d="M183.508 95.9005C183.508 118.068 165.538 136.04 143.369 136.04C121.201 136.04 103.231 118.068 103.231 95.9005C103.231 73.7327 121.201 55.761 143.369 55.761C165.538 55.761 183.508 73.7327 183.508 95.9005Z"
        fill="white" />
    <path
        d="M103.788 101.259C103.788 101.259 105.043 114.007 112.921 115.078C120.805 116.152 179.754 114.451 182.204 108.871L105.075 101.338"
        fill="#B92925" />
    <path
        d="M146.473 73.4031C146.473 73.4031 182.712 105.138 182.204 108.871C181.697 112.604 115.043 106.528 115.043 106.528C115.043 106.528 115.331 94.2857 117.833 88.2891C120.34 82.2943 146.473 73.4031 146.473 73.4031Z"
        fill="#EA5A08" />
    <path
        d="M127.648 83.4258C127.648 83.4258 140.954 87.0702 141.136 87.7984C141.319 88.5266 140.384 90.2298 139.894 90.7255C139.403 91.2211 125.721 87.2505 125.721 87.2505"
        fill="#FFB520" />
    <path
        d="M120.767 101.922C124.051 102.373 127.073 100.071 127.522 96.7869C127.967 93.5029 125.666 90.4839 122.383 90.0333C119.99 89.707 117.748 90.8516 116.527 92.7621C116.21 94.2689 115.958 95.8496 115.758 97.3997C116.327 99.7212 118.252 101.583 120.767 101.922Z"
        fill="#B92925" />
    <path
        d="M119.368 71.9617C119.368 71.9617 103.734 85.1661 103.788 101.26C103.788 101.26 105.309 109.32 115.042 106.528C115.042 106.528 132.421 80.4672 146.473 73.4036C146.473 73.4036 141.193 59.9667 132.098 63.5913C123.005 67.2177 119.368 71.9617 119.368 71.9617Z"
        fill="#E63923" />
    <path
        d="M154.453 93.4099C158.31 93.9362 161.955 92.2798 164.17 89.3978C158.018 83.6679 151.907 78.2084 148.725 75.3895C147.022 76.981 145.834 79.1421 145.495 81.6294C144.717 87.3592 148.725 92.6295 154.453 93.4099Z"
        fill="#B92925" />
    <path
        d="M146.552 106.98C147.196 102.246 143.883 97.8855 139.148 97.2439C134.415 96.5986 130.055 99.9132 129.411 104.648C129.263 105.715 129.346 106.755 129.575 107.75C134.485 108.136 140.199 108.561 146.024 108.945C146.267 108.32 146.46 107.673 146.552 106.98Z"
        fill="#FFB520" />
    <path
        d="M136.336 104.464C134.272 104.185 132.376 105.628 132.093 107.688C132.083 107.775 132.092 107.86 132.086 107.944C134.458 108.126 136.969 108.314 139.568 108.5C139.728 106.519 138.328 104.738 136.336 104.464Z"
        fill="#FF7305" />
    <path
        d="M144.252 102.161C144.119 103.153 143.202 103.848 142.212 103.713C141.219 103.58 140.523 102.664 140.657 101.673C140.793 100.682 141.707 99.9822 142.7 100.119C143.692 100.253 144.387 101.166 144.252 102.161Z"
        fill="#FF7305" />
    <path
        d="M171.121 96.0096C169.534 97.4569 168.421 99.4468 168.108 101.745C167.668 104.977 168.91 108.046 171.165 110.076C177.664 110.135 182.076 109.821 182.204 108.872C182.394 107.469 177.419 102.134 171.121 96.0096Z"
        fill="#FFB520" />
    <path
        d="M156.864 99.5089C156.543 98.7627 153.252 99.1593 153.1 100.264C152.99 101.084 155.162 106.706 156.296 109.557C157.626 109.626 158.931 109.689 160.218 109.747C158.994 105.944 157.08 100.015 156.864 99.5089Z"
        fill="#B92925" />
    <g opacity="0.300003">
        <g opacity="0.300003">
            <path
                opacity="0.300003"
                d="M132.098 63.592C123.005 67.2185 119.368 71.9624 119.368 71.9624C119.368 71.9624 103.734 85.165 103.788 101.259C103.788 101.259 104.386 104.418 107.223 106.098C107.232 106.095 107.24 106.091 107.247 106.087C110.311 104.171 110.459 101.136 110.902 97.8431C111.318 94.752 111.67 92.2863 114.667 90.8138C117.153 89.5935 120.188 90.0694 122.187 87.9083C125.449 84.3864 122.502 76.4107 128.888 75.3491C131.451 74.9256 134.238 75.6213 136.476 73.5107C138.955 71.1712 137.558 67.7844 141.419 66.5011C141.61 66.438 141.797 66.393 141.985 66.3497C139.564 63.8173 136.226 61.9446 132.098 63.592Z"
                fill="#E63923" />
        </g>
    </g>
    <path
        d="M156.895 82.7179C154.918 80.9209 153.082 79.2699 151.526 77.8802C151 78.4191 150.627 79.1149 150.517 79.9205C150.246 81.905 151.638 83.7308 153.624 84.0012C154.907 84.1778 156.12 83.6479 156.895 82.7179Z"
        fill="#FF7305" />
    <path
        d="M159.046 89.6687C158.889 90.8133 157.839 91.6153 156.69 91.4603C155.544 91.3035 154.742 90.2491 154.897 89.1046C155.054 87.9601 156.11 87.158 157.256 87.313C158.401 87.4698 159.199 88.5242 159.046 89.6687Z"
        fill="#FF7305" />
    <path
        d="M176.452 104.569C177.333 104.686 178.171 104.414 178.809 103.893C177.632 102.573 176.203 101.072 174.604 99.4569C174.197 99.9021 173.914 100.47 173.826 101.113C173.597 102.793 174.776 104.341 176.452 104.569Z"
        fill="#FF7305" />
    <path
        d="M175.45 107.812C175.302 108.882 174.318 109.63 173.251 109.484C172.181 109.338 171.433 108.354 171.58 107.286C171.723 106.217 172.709 105.469 173.778 105.615C174.845 105.759 175.596 106.743 175.45 107.812Z"
        fill="#FF7305" />
    <path
        d="M115.042 106.529C115.042 106.529 112.059 99.328 106.884 100.46C100.138 101.936 103.786 114.964 110.849 114.798C117.913 114.634 115.22 107.505 115.22 107.505"
        fill="#B92925" />
    <path
        d="M111.839 106.672C111.839 106.672 109.72 102.155 106.733 103.986C103.75 105.819 108.08 112.38 110.655 111.735C113.231 111.09 111.839 106.672 111.839 106.672Z"
        fill="#EA5A08" />
    <path
        d="M131.97 25.5374C131.97 25.5374 159.458 26.8982 162.362 27.5651C165.26 28.2302 163.263 31.4259 160.592 31.0618C156.046 30.4435 132.988 29.555 131.653 29.3693C130.317 29.1891 128.158 25.5644 131.97 25.5374Z"
        fill="#001C3F" />
    <path
        d="M145.228 180.061C144.624 184.484 140.551 187.582 136.126 186.98C131.703 186.382 128.602 182.305 129.204 177.883C129.806 173.457 133.88 170.357 138.303 170.959C142.728 171.561 145.828 175.636 145.228 180.061Z"
        fill="#006B93" />
    <path
        d="M67.6792 86.2865C67.6792 86.2865 76.3325 52.6483 87.037 45.9469C97.7397 39.242 104.933 60.3481 99.7079 76.7698C94.4809 93.197 86.3088 113.297 86.3088 113.297"
        fill="#FFDB90" />
    <path
        d="M211.938 82.5135C211.938 82.5135 220.024 95.0384 215.404 105.017C211.464 113.526 196.955 132.698 189.014 134.068C181.076 135.434 180.924 121.543 187.31 110.581C193.7 99.6165 211.938 82.5135 211.938 82.5135Z"
        fill="#FFDB90" />
    <path
        d="M211.938 82.5135C211.938 82.5135 220.024 95.0384 215.404 105.017C211.464 113.526 196.955 132.698 189.014 134.068C181.076 135.434 180.924 121.543 187.31 110.581C193.7 99.6165 211.938 82.5135 211.938 82.5135Z"
        fill="#FFDB90" />
    <path
        d="M213.93 106.857C213.93 106.857 222.019 119.38 217.398 129.358C213.456 137.867 198.947 157.039 191.007 158.407C183.073 159.777 182.922 145.886 189.306 134.92C195.69 123.96 213.93 106.857 213.93 106.857Z"
        fill="#FFDB90" />
    <path
        d="M214.376 130.58C214.376 130.58 222.463 143.101 217.844 153.083C213.907 161.592 200.854 180.009 192.916 181.381C184.977 182.747 183.365 169.608 189.753 158.645C196.139 147.681 214.376 130.58 214.376 130.58Z"
        fill="#FFDB90" />
    <path
        d="M210.356 111.131C210.272 111.293 210.214 111.437 210.356 111.131V111.131Z"
        fill="#FFC181" />
    <path
        d="M215.6 132.752C216.321 131.507 216.934 130.357 217.399 129.358C221.501 120.499 215.598 109.654 214.217 107.329C214.677 106.498 215.077 105.716 215.405 105.017C220.025 95.0387 211.939 82.5138 211.939 82.5138C215.083 94.3664 213.853 103.579 210.357 111.131C211.755 113.497 218.846 120.716 211.216 136.813C211.216 136.813 211.943 135.568 211.216 136.813C215.27 138.998 216.305 151.701 214.08 159.648C214.866 158.444 215.571 157.29 216.193 156.216C216.229 156.155 216.263 156.092 216.301 156.03C216.582 155.536 216.844 155.061 217.085 154.605C217.121 154.532 217.155 154.464 217.191 154.394C217.431 153.934 217.655 153.492 217.844 153.083C221.292 145.632 217.662 136.77 215.6 132.752Z"
        fill="#FFC181" />
    <path
        d="M211.63 107.766L198.622 123.406C198.622 123.406 211.136 113.413 212.666 114.163C214.194 114.916 214.326 111.942 214.326 111.942L211.63 107.766Z"
        fill="#FFC181" />
    <path
        d="M213.314 131.386C213.314 131.386 208.426 141.332 203.049 146.856C203.049 146.856 211.834 138.259 213.451 140.38L215.599 136.594"
        fill="#FFC181" />
    <path
        d="M189.007 116.115C189.007 116.115 185.676 124.635 186.453 126.919C187.23 129.201 188.627 132.924 191.355 130.85C194.084 128.772 198.212 124.44 198.621 123.406C199.035 122.375 192.819 110.106 189.007 116.115Z"
        fill="white" />
    <path
        d="M191.224 141.344C191.224 141.344 188.046 149.462 188.787 151.638C189.528 153.812 190.858 157.359 193.461 155.383C196.062 153.404 199.989 149.275 200.384 148.291C200.775 147.307 194.852 135.62 191.224 141.344Z"
        fill="white" />
    <path
        d="M193.127 165.445C193.127 165.445 190.245 172.806 190.915 174.779C191.589 176.751 192.797 179.972 195.155 178.177C197.516 176.38 201.077 172.638 201.436 171.746C201.791 170.852 196.416 160.252 193.127 165.445Z"
        fill="white" />
    <path
        d="M90.3388 49.6595C88.2859 48.1779 86.3069 47.8174 84.6216 47.949C80.6383 51.9738 77.0371 59.2843 74.1875 66.4633C79.6199 70.2934 86.9828 70.2934 88.6896 67.7935C90.7282 64.8069 95.9137 53.6789 90.3388 49.6595Z"
        fill="white" />
    <g opacity="0.300003">
        <g opacity="0.300003">
            <path
                opacity="0.300003"
                d="M101.84 45.7202C120.362 45.9365 165.678 47.5893 189.652 52.4233C189.607 46.3222 189.268 42.3119 188.552 41.4773C185.254 37.6382 105.753 31.3064 103.444 36.2918C103.089 37.0578 102.52 40.477 101.84 45.7202Z"
                fill="#00998E" />
        </g>
    </g>
    <path
        d="M75.1775 94.8409C73.1426 92.3122 68.9718 91.6741 66.6593 89.1399C66.3457 90.5242 66.0988 92.0021 65.9077 93.5468C68.9484 93.7036 73.0038 95.0915 75.1775 94.8409Z"
        fill="#FFC181" />
    <path
        d="M75.4575 99.4482C73.2405 97.1321 68.8481 97.6692 65.6037 96.5932C65.51 97.8711 65.4433 99.1814 65.4109 100.535C68.5363 101.005 73.3523 102.164 75.4575 99.4482Z"
        fill="#FFC181" />
    <path
        d="M212.083 108.442C212.083 108.442 212.964 97.4433 211.593 97.0522C210.218 96.6611 210.639 110.794 210.639 110.794L212.083 108.442Z"
        fill="#FFC181" />
    <path
        d="M208.861 111.877C208.861 111.877 209.746 100.881 208.372 100.491C206.995 100.1 207.422 114.231 207.422 114.231L208.861 111.877Z"
        fill="#FFC181" />
    <path
        d="M213.289 134.817C213.289 134.817 214.172 123.82 212.8 123.429C211.425 123.04 211.847 137.171 211.847 137.171L213.289 134.817Z"
        fill="#FFC181" />
    <g opacity="0.5">
        <g opacity="0.5">
            <path
                opacity="0.5"
                d="M103.444 36.2912C102.516 38.2936 100.149 58.3165 98.064 81.8091L131.596 34.7735C116.618 34.1319 104.333 34.3752 103.444 36.2912Z"
                fill="#BDDCE0" />
        </g>
    </g>
    <g opacity="0.300003">
        <g opacity="0.300003">
            <path
                opacity="0.300003"
                d="M179.176 167.407C181.899 163.669 186.054 123.371 188.224 89.3195L143.149 167.746C161.285 168.845 177.984 169.043 179.176 167.407Z"
                fill="#6CC5D1" />
        </g>
    </g>
    <path
        d="M273.962 233.845C265.476 218.827 250.051 195.457 244.021 195.392C237.988 195.327 233.934 199.08 233.934 199.08C233.934 199.08 228.329 193.824 222.294 193.757C216.262 193.696 213.098 198.726 213.098 198.726C201.179 193.534 196.662 203.157 196.662 203.157C196.662 203.157 180.749 188.215 170.614 178.365C160.272 168.318 151.336 162.006 147.208 166.449C143.708 170.214 143.001 173.52 152.559 184.657C161.404 194.954 178.438 213.023 187.611 223.187C195.085 230.881 196.807 244.461 191.489 241.416C186.172 238.376 172.368 232.096 166.571 233.156C158.531 234.623 160.69 245.037 166.645 246.469C172.604 247.9 178.939 257.175 187.73 264.392C196.515 271.61 216.741 270.552 227.287 273.342C234.473 275.24 242.135 281.12 246.288 284.671C256.32 295.791 269.975 310.796 269.975 310.796C269.975 310.796 293.374 307.037 308.999 284.114C308.999 284.114 282.446 248.866 273.962 233.845Z"
        fill="#FFDB90" />
    <path
        d="M238.888 202.447C239.289 202.185 238.182 199.642 236.949 197.093C235.044 198.061 233.934 199.08 233.934 199.08C233.934 199.08 238.108 202.949 238.888 202.447Z"
        fill="#FFC181" />
    <path
        d="M217.793 201.874C218.195 201.516 216.383 199.021 214.696 196.873C213.643 197.873 213.099 198.726 213.099 198.726C213.099 198.726 217.07 202.522 217.793 201.874Z"
        fill="#FFC181" />
    <path
        d="M202.864 207.484C203.372 207.263 200.137 203.166 198.273 200.868C197.17 202.093 196.662 203.157 196.662 203.157C196.662 203.157 202.161 207.785 202.864 207.484Z"
        fill="#FFC181" />
    <path
        d="M146.788 171.47C146.788 171.47 148.61 175.687 151.386 177.49C152.777 178.391 158.895 172.665 158.559 171.309C158.224 169.952 153.359 166.796 151.822 166.71C150.281 166.625 146.901 169.415 146.788 171.47Z"
        fill="white" />
    <path
        d="M169.503 196.277C169.503 196.277 170.216 190.965 176.934 188.566C176.934 188.566 171.608 193.617 169.503 196.277Z"
        fill="#FFC181" />
    <path
        d="M174.141 200.456C174.141 200.456 174.676 195.125 181.313 192.502C181.313 192.502 176.154 197.727 174.141 200.456Z"
        fill="#FFC181" />
    <path
        d="M177.98 189.828C177.98 189.828 177.268 195.14 170.549 197.542C170.549 197.542 175.875 192.49 177.98 189.828Z"
        fill="#FFC181" />
    <path
        d="M309 284.113C309 284.113 283.95 250.864 274.736 235.188C277.944 240.866 289.876 263.363 286.421 278.177C284.604 285.98 272.153 298.251 264.659 304.95C267.851 308.463 269.974 310.797 269.974 310.797C269.974 310.797 293.375 307.038 309 284.113Z"
        fill="#FFC181" />
    <path
        d="M190.629 223.192C190.629 223.192 157.434 187.218 150.91 179.866C147.438 175.953 145.684 173.042 144.845 170.917C144.617 173.784 146.578 177.687 152.559 184.656C160.92 194.391 176.608 211.081 186.048 221.456V221.46C186.586 222.055 187.115 222.633 187.61 223.186C191.644 227.337 194 233.211 194.479 237.249C196.586 231.813 190.629 223.192 190.629 223.192Z"
        fill="#FFC181" />
    <path
        d="M172.448 249.844C173.187 247.016 173.086 240.518 171.936 239.017C170.17 236.704 165.26 235.142 164.089 237.645C163.225 239.5 164.143 243.584 164.683 245.592C164.981 245.789 165.293 245.965 165.615 246.109C165.945 246.259 166.289 246.38 166.644 246.468C168.521 246.917 170.435 248.148 172.448 249.844Z"
        fill="white" />
    <path
        d="M186.312 263.19C186.777 263.601 187.247 263.995 187.73 264.392C187.979 264.601 188.271 264.776 188.547 264.972C188.428 264.358 188.336 263.723 188.285 262.986C188.152 261.075 188.415 258.258 187.627 257.595C186.551 257.723 186.349 260.673 186.312 263.19Z"
        fill="#FFC181" />
    <path
        d="M183.427 256.429C182.591 256.229 183.332 258.875 183.633 260.749C184.2 261.288 184.781 261.823 185.372 262.357C184.959 259.621 184.741 256.847 183.427 256.429Z"
        fill="#FFC181" />
    <path
        d="M179.84 257.015C180.662 257.851 181.511 258.698 182.38 259.545C181.987 257.837 181.481 255.874 180.475 255.029C179.958 255.079 179.79 255.896 179.84 257.015Z"
        fill="#FFC181" />
    <path
        d="M263.177 121.028C260.731 122.324 260.216 116.984 256.807 107.732C255.901 105.273 255.282 103.914 253.977 101.141C252.737 98.1666 248.39 99.3093 249.421 101.57C252.393 108.747 257.191 119.844 257.507 121.223C258.011 123.431 255.372 124.994 253.932 121.958C253.172 120.352 248.833 110.133 245.894 104.261C244.536 102.008 240.721 103.531 241.629 106.185C245.94 114.963 247.883 119.877 249.738 124.011C251.65 128.27 249.069 128.986 246.993 126.621C245.953 125.435 239.993 108.702 238.695 109.06C236.157 109.248 238.012 117.786 240.261 123.251C248.345 142.904 254.343 140.864 254.343 140.864C285.662 206.825 285.557 206.608 288.778 212.954C291.496 218.32 301.548 216.702 296.377 206.325C291.211 195.956 267.686 135.478 267.686 135.478C267.686 135.478 274.743 127.29 264.929 106.238C261.475 98.8317 258.46 100.252 258.954 101.807C259.907 106.42 265.45 119.826 263.177 121.028Z"
        fill="white" />
</svg>
